<svg id="svg" version="1.1" xmlns="http://www.w3.org/2000/svg" xmlns:xlink="http://www.w3.org/1999/xlink" width="400" height="400" viewBox="0, 0, 400,400"><g id="svgg"><path id="path0" d="M180.469 27.875 C 100.486 34.349,36.122 85.743,28.069 149.566 L 26.399 162.803 28.072 176.128 C 34.993 231.247,82.654 276.909,150.043 292.983 C 158.875 295.089,168.983 297.053,172.504 297.347 C 176.344 297.667,178.904 298.227,178.902 298.745 C 178.899 299.220,176.615 321.934,173.825 349.219 C 171.035 376.504,168.752 399.092,168.751 399.414 C 168.751 399.736,182.845 400.000,200.073 400.000 L 231.397 400.000 230.922 396.289 C 230.221 390.815,221.096 300.604,221.095 299.139 C 221.094 298.129,222.369 297.789,227.682 297.380 C 231.305 297.102,241.588 295.127,250.533 292.992 C 317.489 277.012,364.921 231.488,371.879 176.530 L 373.560 163.256 371.925 150.183 C 363.757 84.843,299.530 34.177,216.797 27.808 C 198.234 26.379,198.974 26.377,180.469 27.875 M213.947 57.870 C 267.398 61.790,313.319 91.550,329.110 132.503 C 350.558 188.127,309.915 247.497,239.072 264.026 C 226.559 266.945,217.188 268.449,217.188 267.536 C 217.188 266.848,206.280 192.121,205.775 189.347 C 205.349 187.010,205.522 186.809,209.552 184.964 C 229.196 175.971,228.294 148.261,208.110 140.642 C 188.792 133.349,169.723 153.444,178.028 172.343 C 180.619 178.240,189.453 185.937,193.630 185.938 C 194.416 185.938,194.582 186.621,194.250 188.477 C 193.508 192.613,182.813 266.134,182.813 267.098 C 182.813 268.431,175.649 267.485,161.719 264.312 C 109.519 252.422,71.162 216.134,65.869 173.633 C 57.545 106.788,128.165 51.580,213.947 57.870 " stroke="none" fill="#000000" fill-rule="evenodd"></path></g></svg>
