<svg xmlns="http://www.w3.org/2000/svg" xmlns:xlink="http://www.w3.org/1999/xlink" id="svg" version="1.1" viewBox="30.47 54.69 339.06 287.5"><g id="svgg"><path id="path0" d="M55.528 56.707 C 51.049 57.746,46.831 59.057,46.153 59.620 C 34.795 69.049,34.742 69.115,32.547 76.427 L 30.469 83.353 30.469 198.358 L 30.469 313.364 32.550 320.317 L 34.631 327.269 41.106 332.753 C 47.522 338.188,47.657 338.255,56.155 340.213 L 64.731 342.187 200.233 342.188 L 335.735 342.188 344.052 340.308 C 352.255 338.454,352.459 338.352,358.851 332.969 L 365.333 327.511 367.432 320.517 L 369.531 313.522 369.531 198.365 L 369.531 83.207 367.154 76.073 C 363.563 65.293,356.699 59.598,343.782 56.682 L 334.946 54.688 199.309 54.752 L 63.672 54.816 55.528 56.707 M300.938 97.691 C 311.106 99.956,316.868 104.867,319.406 113.431 C 322.073 122.427,322.063 274.143,319.395 283.324 C 316.976 291.650,310.928 296.795,300.752 299.184 C 290.009 301.706,109.374 301.679,98.741 299.154 C 89.154 296.877,83.238 291.855,80.640 283.789 L 78.906 278.405 78.906 198.901 C 78.906 105.423,78.428 111.089,86.945 103.710 C 90.981 100.214,92.490 99.452,98.338 97.961 L 105.078 96.242 199.422 96.168 C 291.737 96.095,293.921 96.128,300.938 97.691 M159.564 201.367 L 159.766 248.828 196.289 249.031 L 232.813 249.234 232.813 234.776 L 232.813 220.318 227.625 207.352 L 222.437 194.386 224.975 187.232 C 226.370 183.297,227.864 179.004,228.293 177.692 C 229.009 175.506,228.558 174.407,222.936 164.621 L 216.797 153.937 188.080 153.922 L 159.363 153.906 159.564 201.367 " stroke="none" fill="#000000" fill-rule="evenodd" data-darkreader-inline-fill="" data-darkreader-inline-stroke="" style="--darkreader-inline-fill:#000000; --darkreader-inline-stroke:none;"/></g></svg>