<svg xmlns="http://www.w3.org/2000/svg" xmlns:xlink="http://www.w3.org/1999/xlink" id="svg" viewBox="14.8 154.75 371.91 112.82"><g id="svgg"><path id="path0" d="M51.924 155.519 C 46.086 157.216,43.761 162.579,43.754 174.361 L 43.750 181.926 30.789 182.174 C 13.187 182.511,14.844 179.468,14.844 211.450 L 14.844 236.790 16.761 238.707 C 18.638 240.584,18.947 240.625,31.214 240.625 L 43.750 240.625 43.750 248.542 C 43.750 258.112,44.691 261.591,48.200 264.992 L 50.868 267.578 215.617 267.578 L 380.366 267.578 382.687 265.354 C 386.590 261.615,386.719 259.891,386.714 211.568 C 386.709 158.654,386.580 157.805,378.169 155.468 C 374.628 154.484,55.310 154.534,51.924 155.519 M375.781 211.245 C 375.781 252.123,375.653 256.913,374.545 257.338 C 372.930 257.958,57.539 257.958,55.923 257.338 C 54.634 256.844,53.933 167.421,55.208 166.146 C 55.495 165.859,127.741 165.625,215.755 165.625 L 375.781 165.625 375.781 211.245 M71.278 211.523 L 71.484 237.109 85.632 237.322 C 96.354 237.483,99.972 237.294,100.572 236.541 C 101.374 235.533,124.219 187.013,124.219 186.316 C 124.219 186.108,112.261 185.938,97.646 185.938 L 71.072 185.938 71.278 211.523 M139.571 197.070 C 123.671 227.434,119.531 235.580,119.531 236.499 C 119.531 237.296,125.742 237.500,149.982 237.500 L 180.433 237.500 181.558 235.742 C 183.386 232.886,207.031 187.229,207.031 186.555 C 207.031 186.215,193.164 185.938,176.216 185.938 L 145.401 185.938 139.571 197.070 M220.172 211.154 C 213.004 225.000,207.401 236.596,207.720 236.923 C 208.039 237.251,222.134 237.426,239.042 237.314 L 269.783 237.109 282.894 212.109 C 290.105 198.359,296.024 186.846,296.049 186.523 C 296.074 186.201,281.943 185.947,264.648 185.959 L 233.203 185.980 220.172 211.154 M303.255 211.098 C 296.743 224.937,291.699 236.542,292.045 236.889 C 292.391 237.235,306.540 237.426,323.486 237.314 L 354.297 237.109 354.503 211.523 L 354.709 185.938 334.902 185.938 L 315.095 185.938 303.255 211.098 " stroke="none" fill="#000000" fill-rule="evenodd" data-darkreader-inline-fill="" data-darkreader-inline-stroke="" style="--darkreader-inline-fill:#000000; --darkreader-inline-stroke:none;"/></g></svg>