<svg id="svg" xmlns="http://www.w3.org/2000/svg" xmlns:xlink="http://www.w3.org/1999/xlink" width="400" height="216.5079365079365" viewBox="0, 0, 400,216.5079365079365"><g id="svgg"><path id="path0" d="M158.593 0.339 C 158.494 0.434,153.698 0.671,147.937 0.865 C 142.175 1.060,136.603 1.341,135.556 1.489 C 134.508 1.638,131.794 1.938,129.524 2.156 C 123.950 2.691,119.881 3.156,118.730 3.387 C 118.206 3.492,116.921 3.762,115.873 3.987 C 114.825 4.211,112.897 4.549,111.587 4.737 C 106.410 5.481,102.667 6.149,102.381 6.380 C 102.169 6.551,101.762 6.645,98.413 7.302 C 95.109 7.949,95.215 7.922,93.968 8.449 C 93.444 8.671,92.302 8.989,91.429 9.155 C 90.556 9.322,89.127 9.633,88.254 9.846 C 87.381 10.059,86.238 10.337,85.714 10.465 C 85.190 10.592,84.762 10.740,84.762 10.794 C 84.762 10.847,84.262 11.012,83.651 11.160 C 83.040 11.308,82.183 11.527,81.746 11.647 C 81.310 11.767,80.095 12.092,79.048 12.369 C 78.000 12.647,76.857 13.044,76.508 13.253 C 76.159 13.461,75.730 13.656,75.556 13.685 C 73.598 14.018,69.156 15.479,67.778 16.245 C 66.817 16.778,66.032 17.023,66.032 16.788 C 66.032 16.554,65.389 16.778,64.603 17.287 C 63.336 18.107,61.235 18.826,59.365 19.078 C 59.016 19.125,58.016 19.520,57.143 19.955 C 54.514 21.265,50.049 23.259,46.349 24.773 C 44.429 25.559,41.357 27.048,39.524 28.082 C 37.690 29.116,36.190 29.809,36.190 29.622 C 36.190 28.736,18.747 39.506,16.746 41.628 C 10.231 48.536,9.928 49.211,4.791 68.278 C -2.748 96.258,-1.483 107.612,10.512 119.637 C 15.439 124.577,22.781 129.800,25.714 130.454 C 27.750 130.907,30.244 131.654,30.794 131.975 C 31.143 132.178,31.714 132.392,32.063 132.450 C 32.413 132.507,33.841 132.739,35.238 132.964 C 36.635 133.190,38.635 133.547,39.683 133.758 C 42.669 134.361,47.917 134.050,52.698 132.986 C 53.571 132.792,54.980 132.490,55.829 132.315 C 56.677 132.140,57.605 131.853,57.890 131.677 C 58.377 131.376,59.263 131.146,62.700 130.431 C 63.487 130.267,66.701 129.445,69.843 128.604 C 72.985 127.764,75.556 127.233,75.556 127.425 C 75.556 127.617,75.913 127.491,76.349 127.145 C 77.032 126.604,81.798 125.271,84.526 124.858 C 85.005 124.785,85.685 124.546,86.037 124.326 C 86.855 123.813,90.991 123.029,91.490 123.292 C 91.698 123.402,92.269 123.174,92.760 122.786 C 93.528 122.177,97.138 121.030,97.631 121.238 C 97.724 121.277,99.070 120.566,100.620 119.658 C 102.171 118.749,103.604 118.097,103.805 118.209 C 104.251 118.457,107.348 116.038,112.153 111.690 C 118.562 105.889,121.613 99.903,125.390 85.714 C 128.698 73.286,128.398 73.899,131.429 73.361 C 133.896 72.923,135.556 72.529,135.556 72.381 C 135.556 72.243,137.057 71.942,140.025 71.485 C 141.436 71.267,143.293 70.949,144.152 70.776 C 151.192 69.365,156.782 68.969,169.841 68.960 C 182.133 68.951,194.603 69.722,194.603 70.491 C 194.603 70.552,195.317 70.680,196.190 70.776 C 199.673 71.157,203.500 71.872,204.114 72.257 C 204.822 72.700,204.766 72.688,208.876 73.319 C 210.440 73.559,212.583 74.116,213.638 74.555 C 214.693 74.995,217.127 75.723,219.048 76.173 C 220.968 76.624,222.868 77.251,223.269 77.567 C 223.669 77.884,224.527 78.258,225.173 78.398 C 227.506 78.904,233.817 81.349,235.305 82.324 C 236.141 82.872,236.825 83.160,236.825 82.963 C 236.825 82.015,257.566 93.365,258.562 94.857 C 258.833 95.264,259.036 95.290,259.048 94.921 C 259.060 94.523,259.241 94.535,259.534 94.951 C 259.790 95.317,261.000 96.303,262.222 97.143 C 263.444 97.982,264.654 98.968,264.911 99.334 C 265.167 99.701,265.382 99.789,265.387 99.530 C 265.392 99.272,265.897 99.473,266.508 99.977 C 267.119 100.481,269.351 102.264,271.469 103.939 C 286.303 115.674,285.729 114.334,281.943 128.371 C 277.216 145.901,277.616 152.193,284.318 165.680 C 287.958 173.006,321.141 206.125,328.983 210.258 C 331.198 211.426,333.186 212.620,333.401 212.911 C 333.617 213.203,333.904 213.394,334.039 213.336 C 334.400 213.180,337.989 214.082,338.730 214.514 C 339.424 214.919,339.598 214.968,342.857 215.663 C 345.800 216.290,357.035 216.260,360.635 215.616 C 362.206 215.334,363.778 215.055,364.127 214.995 C 364.476 214.934,365.118 214.662,365.553 214.391 C 365.988 214.119,366.927 213.784,367.640 213.647 C 369.015 213.382,376.176 209.259,377.778 207.811 C 378.302 207.337,379.453 206.314,380.337 205.538 C 387.209 199.501,389.555 194.399,395.215 173.165 C 400.538 153.200,400.720 151.083,397.870 142.222 C 396.892 139.180,389.020 125.193,387.686 124.127 C 387.248 123.778,386.064 122.063,385.054 120.317 C 384.044 118.571,382.831 116.746,382.359 116.260 C 381.886 115.775,381.022 114.632,380.437 113.720 C 379.853 112.809,379.161 111.778,378.898 111.429 C 378.224 110.530,374.075 105.222,373.378 104.365 C 362.371 90.841,363.554 92.151,352.137 80.816 C 339.650 68.419,337.779 66.640,337.768 67.160 C 337.763 67.412,337.548 67.333,337.292 66.984 C 337.035 66.635,335.111 64.927,333.016 63.189 C 330.921 61.451,329.063 59.877,328.889 59.693 C 328.714 59.508,327.194 58.359,325.511 57.139 C 323.828 55.919,321.715 54.278,320.815 53.492 C 319.916 52.706,318.990 52.063,318.757 52.063 C 318.525 52.063,317.736 51.506,317.005 50.824 C 316.273 50.143,314.148 48.668,312.282 47.546 C 310.416 46.424,308.317 45.019,307.619 44.424 C 305.503 42.622,282.013 29.309,281.628 29.694 C 281.431 29.892,281.270 29.672,281.270 29.206 C 281.270 28.741,281.080 28.550,280.848 28.782 C 280.615 29.014,279.258 28.520,277.832 27.684 C 276.405 26.848,274.952 26.136,274.603 26.102 C 274.254 26.068,272.825 25.481,271.429 24.798 C 270.032 24.115,267.460 22.948,265.714 22.205 C 263.968 21.462,261.754 20.432,260.794 19.915 C 259.833 19.398,259.048 19.142,259.048 19.345 C 259.048 19.549,258.190 19.272,257.143 18.730 C 256.095 18.188,255.238 17.902,255.238 18.094 C 255.238 18.285,254.524 17.974,253.651 17.402 C 252.778 16.830,252.063 16.548,252.063 16.775 C 252.063 17.002,251.421 16.830,250.635 16.394 C 249.849 15.958,249.063 15.571,248.889 15.534 C 248.714 15.497,247.286 15.078,245.714 14.603 C 244.143 14.128,242.714 13.715,242.540 13.685 C 242.365 13.656,241.937 13.459,241.587 13.249 C 241.238 13.038,239.381 12.505,237.460 12.064 C 235.540 11.623,233.683 11.053,233.333 10.798 C 232.603 10.264,230.462 9.716,226.919 9.155 C 225.558 8.940,224.159 8.585,223.810 8.368 C 223.460 8.150,222.889 7.925,222.540 7.867 C 219.030 7.285,215.556 6.530,215.556 6.349 C 215.556 6.296,215.127 6.163,214.603 6.055 C 213.703 5.869,212.800 5.716,206.667 4.715 C 203.495 4.197,202.222 3.936,202.222 3.803 C 202.222 3.746,201.245 3.600,200.050 3.478 C 198.855 3.357,196.712 3.093,195.288 2.892 C 193.864 2.691,190.841 2.368,188.571 2.175 C 186.302 1.982,183.587 1.695,182.540 1.539 C 181.492 1.382,177.349 1.100,173.333 0.912 C 169.317 0.724,164.399 0.480,162.403 0.369 C 160.407 0.258,158.693 0.245,158.593 0.339 " stroke="none" fill="#000000" fill-rule="evenodd"></path></g></svg>