<svg xmlns="http://www.w3.org/2000/svg" xmlns:xlink="http://www.w3.org/1999/xlink" id="svg" viewBox="110.1 18.16 179.79 349.04"><g id="svgg"><path id="path0" d="M227.528 18.745 C 224.518 20.011,224.219 22.558,224.219 46.926 L 224.219 70.313 187.695 70.315 C 145.237 70.319,141.357 70.687,131.594 75.631 C 121.099 80.946,112.934 91.886,111.025 103.189 C 109.788 110.510,109.803 327.115,111.041 334.311 C 113.732 349.963,127.625 363.862,143.086 366.371 C 150.146 367.516,250.985 367.464,257.749 366.311 C 272.522 363.793,286.323 349.643,288.959 334.311 C 290.210 327.038,290.211 111.247,288.960 103.970 C 286.208 87.963,272.399 74.174,256.670 71.729 L 250.843 70.823 250.617 46.370 C 250.339 16.299,251.297 18.450,238.066 18.180 C 233.243 18.082,228.501 18.336,227.528 18.745 M249.727 81.328 C 260.111 83.136,269.262 90.684,274.261 101.563 L 276.953 107.422 276.953 218.750 L 276.953 330.078 274.069 336.117 C 268.869 347.007,259.812 354.280,249.134 356.139 C 242.217 357.344,157.957 357.374,151.068 356.175 C 137.336 353.783,126.196 342.301,123.510 327.767 C 122.384 321.676,122.321 117.374,123.443 110.461 C 125.784 96.039,136.333 84.408,149.609 81.610 C 155.835 80.298,242.412 80.054,249.727 81.328 M161.212 129.094 C 136.611 135.947,137.811 180.863,162.770 187.412 C 172.219 189.891,228.814 189.959,237.682 187.502 C 262.870 180.522,262.748 135.766,237.522 128.959 C 228.602 126.552,169.964 126.656,161.212 129.094 M155.237 227.181 C 148.692 233.884,153.212 243.750,162.828 243.750 C 169.731 243.750,172.656 240.820,172.656 233.905 C 172.656 224.349,162.014 220.241,155.237 227.181 M192.341 226.795 C 188.467 230.792,188.666 236.814,192.806 240.857 C 199.448 247.342,210.156 243.057,210.156 233.915 C 210.156 225.100,198.499 220.442,192.341 226.795 M229.455 227.181 C 222.910 233.884,227.431 243.750,237.047 243.750 C 243.950 243.750,246.875 240.820,246.875 233.905 C 246.875 224.349,236.233 220.241,229.455 227.181 M155.169 263.284 C 146.289 273.112,160.516 286.977,169.763 277.506 C 173.907 273.263,174.051 266.502,170.080 262.653 C 165.938 258.639,159.104 258.928,155.169 263.284 M192.737 263.119 C 186.063 269.953,190.608 280.469,200.234 280.469 C 209.511 280.469,213.867 269.565,207.194 263.049 C 202.801 258.760,196.965 258.788,192.737 263.119 M229.388 263.284 C 220.508 273.112,234.734 286.977,243.982 277.506 C 248.126 273.263,248.270 266.502,244.299 262.653 C 240.157 258.639,233.323 258.928,229.388 263.284 M155.237 299.838 C 148.672 306.560,153.307 316.406,163.036 316.406 C 169.713 316.406,172.656 313.394,172.656 306.561 C 172.656 297.005,162.014 292.897,155.237 299.838 M192.341 299.451 C 188.467 303.448,188.666 309.471,192.806 313.513 C 202.220 322.706,216.406 309.516,207.732 299.637 C 204.163 295.572,196.193 295.476,192.341 299.451 M229.455 299.838 C 222.891 306.560,227.525 316.406,237.255 316.406 C 243.932 316.406,246.875 313.394,246.875 306.561 C 246.875 297.005,236.233 292.897,229.455 299.838 " stroke="none" fill="#000000" fill-rule="evenodd" data-darkreader-inline-fill="" data-darkreader-inline-stroke="" style="--darkreader-inline-fill:#000000; --darkreader-inline-stroke:none;"/></g></svg>