<svg id="svg" xmlns="http://www.w3.org/2000/svg" xmlns:xlink="http://www.w3.org/1999/xlink" width="400" height="216.5079365079365" viewBox="0, 0, 400,216.5079365079365"><g id="svgg"><path id="path0" d="M236.678 0.344 C 236.584 0.429,232.651 0.665,227.937 0.867 C 223.222 1.070,218.508 1.368,217.460 1.530 C 216.413 1.691,213.698 1.982,211.429 2.175 C 209.159 2.368,206.136 2.691,204.712 2.892 C 203.288 3.093,201.145 3.357,199.950 3.478 C 198.755 3.600,197.778 3.746,197.778 3.803 C 197.778 3.936,196.505 4.197,193.333 4.715 C 187.200 5.716,186.297 5.869,185.397 6.055 C 184.873 6.163,184.444 6.296,184.444 6.349 C 184.444 6.530,180.970 7.285,177.460 7.867 C 177.111 7.925,176.540 8.150,176.190 8.368 C 175.841 8.585,174.442 8.940,173.081 9.155 C 169.538 9.716,167.397 10.264,166.667 10.798 C 166.317 11.053,164.460 11.623,162.540 12.064 C 160.619 12.505,158.762 13.038,158.413 13.249 C 158.063 13.459,157.635 13.656,157.460 13.685 C 157.286 13.715,155.857 14.128,154.286 14.603 C 152.714 15.078,151.286 15.497,151.111 15.534 C 150.937 15.571,150.151 15.958,149.365 16.394 C 148.579 16.830,147.937 17.002,147.937 16.775 C 147.937 16.548,147.222 16.830,146.349 17.402 C 145.476 17.974,144.762 18.285,144.762 18.094 C 144.762 17.902,143.905 18.188,142.857 18.730 C 141.810 19.272,140.952 19.549,140.952 19.345 C 140.952 19.142,140.167 19.398,139.206 19.915 C 138.246 20.432,136.032 21.462,134.286 22.205 C 132.540 22.948,129.837 24.184,128.280 24.953 C 126.723 25.721,125.360 26.269,125.252 26.171 C 125.144 26.072,123.823 26.715,122.315 27.598 C 120.808 28.481,119.385 29.014,119.152 28.782 C 118.920 28.550,118.730 28.741,118.730 29.206 C 118.730 29.672,118.569 29.892,118.372 29.694 C 117.987 29.309,94.497 42.622,92.381 44.424 C 91.683 45.019,89.584 46.424,87.718 47.546 C 85.852 48.668,83.727 50.143,82.995 50.824 C 82.264 51.506,81.475 52.063,81.243 52.063 C 81.010 52.063,80.084 52.706,79.185 53.492 C 78.285 54.278,76.172 55.919,74.489 57.139 C 72.806 58.359,71.286 59.508,71.111 59.693 C 70.937 59.877,69.079 61.451,66.984 63.189 C 64.889 64.927,62.965 66.635,62.708 66.984 C 62.452 67.333,62.237 67.412,62.232 67.160 C 62.221 66.640,60.350 68.419,47.863 80.816 C 37.467 91.138,36.841 91.811,31.391 98.506 C 29.088 101.336,26.942 103.972,26.622 104.365 C 25.925 105.222,21.776 110.530,21.102 111.429 C 20.839 111.778,20.147 112.809,19.563 113.720 C 18.978 114.632,18.114 115.775,17.641 116.260 C 17.169 116.746,15.956 118.571,14.946 120.317 C 13.936 122.063,12.752 123.778,12.314 124.127 C 10.980 125.193,3.108 139.180,2.130 142.222 C -0.720 151.083,-0.538 153.200,4.785 173.165 C 10.445 194.399,12.791 199.501,19.663 205.538 C 20.547 206.314,21.698 207.337,22.222 207.811 C 23.824 209.259,30.985 213.382,32.360 213.647 C 33.073 213.784,34.012 214.119,34.447 214.391 C 34.882 214.662,35.524 214.934,35.873 214.995 C 36.222 215.055,37.794 215.334,39.365 215.616 C 42.965 216.260,54.200 216.290,57.143 215.663 C 60.402 214.968,60.576 214.919,61.270 214.514 C 62.010 214.083,65.203 213.280,65.799 213.376 C 66.024 213.412,66.383 213.203,66.599 212.911 C 66.814 212.620,68.802 211.426,71.017 210.258 C 78.859 206.125,112.042 173.006,115.682 165.680 C 122.384 152.193,122.784 145.901,118.057 128.371 C 114.271 114.334,113.697 115.674,128.531 103.939 C 130.649 102.264,132.881 100.481,133.492 99.977 C 134.103 99.473,134.608 99.272,134.613 99.530 C 134.618 99.789,134.833 99.701,135.089 99.334 C 135.346 98.968,136.556 97.982,137.778 97.143 C 139.000 96.303,140.210 95.317,140.466 94.951 C 140.759 94.535,140.940 94.523,140.952 94.921 C 140.964 95.290,141.167 95.264,141.438 94.857 C 142.434 93.365,163.175 82.015,163.175 82.963 C 163.175 83.160,163.859 82.872,164.695 82.324 C 166.183 81.349,172.494 78.904,174.827 78.398 C 175.473 78.258,176.331 77.884,176.731 77.567 C 177.132 77.251,179.032 76.624,180.952 76.173 C 182.873 75.723,185.307 74.995,186.362 74.555 C 187.417 74.116,189.560 73.559,191.124 73.319 C 195.234 72.688,195.178 72.700,195.886 72.257 C 196.500 71.872,200.327 71.157,203.810 70.776 C 204.683 70.680,205.397 70.552,205.397 70.491 C 205.397 69.722,217.867 68.951,230.159 68.960 C 243.218 68.969,248.808 69.365,255.848 70.776 C 256.707 70.949,258.564 71.267,259.975 71.485 C 262.943 71.942,264.444 72.243,264.444 72.381 C 264.444 72.529,266.104 72.923,268.571 73.361 C 271.602 73.899,271.302 73.286,274.610 85.714 C 278.387 99.903,281.438 105.889,287.847 111.690 C 292.652 116.038,295.749 118.457,296.195 118.209 C 296.396 118.097,297.829 118.749,299.380 119.658 C 300.930 120.566,302.276 121.277,302.369 121.238 C 302.862 121.030,306.472 122.177,307.240 122.786 C 307.731 123.174,308.159 123.375,308.193 123.233 C 308.274 122.890,313.144 123.812,313.963 124.326 C 314.315 124.546,314.995 124.785,315.474 124.858 C 318.202 125.271,322.968 126.604,323.651 127.145 C 324.087 127.491,324.444 127.617,324.444 127.425 C 324.444 127.233,327.015 127.764,330.157 128.604 C 333.299 129.445,336.513 130.267,337.300 130.431 C 340.737 131.146,341.623 131.376,342.110 131.677 C 342.395 131.853,343.323 132.140,344.171 132.315 C 345.020 132.490,346.429 132.792,347.302 132.986 C 352.083 134.050,357.331 134.361,360.317 133.758 C 361.365 133.547,363.365 133.190,364.762 132.964 C 366.159 132.739,367.587 132.507,367.937 132.450 C 368.286 132.392,368.857 132.178,369.206 131.975 C 369.756 131.654,372.250 130.907,374.286 130.454 C 377.219 129.800,384.561 124.577,389.488 119.637 C 401.483 107.612,402.748 96.258,395.209 68.278 C 390.072 49.211,389.769 48.536,383.254 41.628 C 381.253 39.506,363.810 28.736,363.810 29.622 C 363.810 29.809,362.310 29.116,360.476 28.082 C 358.643 27.048,355.571 25.559,353.651 24.773 C 349.546 23.093,345.207 21.138,342.540 19.767 C 341.492 19.229,340.492 18.834,340.317 18.890 C 339.641 19.107,336.758 18.168,335.397 17.287 C 334.611 16.778,333.968 16.554,333.968 16.788 C 333.968 17.023,333.183 16.778,332.222 16.245 C 330.844 15.479,326.402 14.018,324.444 13.685 C 324.270 13.656,323.841 13.461,323.492 13.253 C 323.143 13.044,322.000 12.647,320.952 12.369 C 319.905 12.092,318.762 11.777,318.413 11.670 C 318.063 11.563,317.206 11.344,316.508 11.183 C 315.810 11.022,315.238 10.847,315.238 10.794 C 315.238 10.740,314.810 10.592,314.286 10.465 C 313.762 10.337,312.619 10.059,311.746 9.846 C 310.873 9.633,309.444 9.322,308.571 9.155 C 307.698 8.989,306.556 8.671,306.032 8.449 C 304.785 7.922,304.891 7.949,301.587 7.302 C 298.238 6.645,297.831 6.551,297.619 6.380 C 297.334 6.150,293.300 5.432,288.254 4.712 C 287.032 4.537,285.175 4.211,284.127 3.987 C 283.079 3.762,281.794 3.492,281.270 3.387 C 280.119 3.156,276.050 2.691,270.476 2.156 C 268.206 1.938,265.492 1.642,264.444 1.500 C 263.397 1.357,258.825 1.099,254.286 0.926 C 249.746 0.753,243.965 0.516,241.440 0.400 C 238.914 0.284,236.772 0.259,236.678 0.344 " stroke="none" fill="#000000" fill-rule="evenodd"></path></g></svg>