<svg xmlns="http://www.w3.org/2000/svg" xmlns:xlink="http://www.w3.org/1999/xlink" id="svg" version="1.1" viewBox="77.83 101.56 311.24 217.19"><g id="svgg"><path id="path0" d="M182.813 140.660 L 182.812 179.757 149.023 141.106 L 115.234 102.455 96.726 102.399 C 86.546 102.369,78.042 102.628,77.827 102.975 C 77.612 103.323,101.132 129.250,130.092 160.592 L 182.748 217.578 182.780 268.164 L 182.813 318.750 285.938 318.750 L 389.063 318.750 389.063 296.839 L 389.063 274.929 383.789 275.160 L 378.516 275.391 378.289 281.836 L 378.062 288.281 374.968 288.281 L 371.875 288.281 371.863 268.945 C 371.849 246.635,372.089 247.492,365.943 247.809 L 361.328 248.047 361.120 268.164 L 360.911 288.281 357.409 288.281 L 353.906 288.281 353.906 254.688 L 353.906 221.094 348.828 221.094 L 343.750 221.094 343.750 254.688 L 343.750 288.281 280.469 288.281 L 217.188 288.281 217.188 253.088 L 217.188 217.894 269.901 160.792 C 298.894 129.386,322.428 103.388,322.199 103.017 C 321.970 102.647,313.454 102.357,303.274 102.373 L 284.766 102.403 251.172 140.766 L 217.578 179.129 217.376 140.346 L 217.173 101.563 199.993 101.563 L 182.813 101.563 182.813 140.660 " stroke="none" fill="#000000" fill-rule="evenodd" data-darkreader-inline-fill="" data-darkreader-inline-stroke="" style="--darkreader-inline-fill:#000000; --darkreader-inline-stroke:none;"/></g></svg>